<svg viewBox="0 0 1280 800" xmlns="http://www.w3.org/2000/svg">
  <!-- Warm dawn theme -->
  <defs>
    <linearGradient id="dawn-bg" x1="0" y1="0" x2="0" y2="1">
      <stop offset="0%" stop-color="#f5f0e8"/>
      <stop offset="100%" stop-color="#ede5d8"/>
    </linearGradient>
    <linearGradient id="gear-grad" x1="0" y1="0" x2="1" y2="1">
      <stop offset="0%" stop-color="#d4c4a8" stop-opacity="0.3"/>
      <stop offset="100%" stop-color="#c0a880" stop-opacity="0.1"/>
    </linearGradient>
  </defs>

  <rect width="1280" height="800" fill="url(#dawn-bg)"/>
  <!-- Subtle gear background decoration -->
  <circle cx="100" cy="700" r="180" fill="none" stroke="#c8b090" stroke-width="0.5" opacity="0.3"/>
  <circle cx="100" cy="700" r="140" fill="none" stroke="#c8b090" stroke-width="0.5" opacity="0.2"/>
  <circle cx="1200" cy="100" r="220" fill="none" stroke="#c8b090" stroke-width="0.5" opacity="0.2"/>
  <circle cx="1200" cy="100" r="160" fill="none" stroke="#c8b090" stroke-width="0.5" opacity="0.15"/>

  <!-- Taskbar -->
  <rect x="0" y="756" width="1280" height="44" fill="#e8ddc8" opacity="0.97"/>
  <line x1="0" y1="756" x2="1280" y2="756" stroke="#c8b490" stroke-width="1"/>
  <polygon points="20,770 26,767 26,773" fill="#e85d04"/>
  <text x="32" y="775" fill="#5a4020" font-family="'Barlow Condensed', sans-serif" font-size="12" font-weight="700" letter-spacing="2">FORGEOS</text>
  <text x="145" y="779" fill="#a09070" font-family="'Barlow Condensed', sans-serif" font-size="12" font-weight="600" letter-spacing="1" text-anchor="middle">DASHBOARD</text>
  <text x="235" y="779" fill="#a09070" font-family="'Barlow Condensed', sans-serif" font-size="12" font-weight="600" letter-spacing="1" text-anchor="middle">STORAGE</text>
  <text x="325" y="779" fill="#a09070" font-family="'Barlow Condensed', sans-serif" font-size="12" font-weight="600" letter-spacing="1" text-anchor="middle">NETWORK</text>
  <rect x="368" y="760" width="80" height="28" rx="3" fill="rgba(232,93,4,0.12)" stroke="#e85d04" stroke-width="1"/>
  <text x="408" y="779" fill="#e85d04" font-family="'Barlow Condensed', sans-serif" font-size="12" font-weight="600" letter-spacing="1" text-anchor="middle">SETTINGS</text>
  <text x="1220" y="773" fill="#a09070" font-size="11" text-anchor="middle">14:42</text>
  <circle cx="1253" cy="778" r="4" fill="#3daa60"/>
  <circle cx="1266" cy="778" r="4" fill="#3daa60"/>

  <!-- Settings window -->
  <rect x="30" y="20" width="560" height="720" rx="4" fill="white" stroke="#d8c8b0" stroke-width="1"/>
  <rect x="30" y="20" width="560" height="32" rx="4" fill="#f0e8d8"/>
  <rect x="30" y="40" width="560" height="12" fill="#f0e8d8"/>
  <line x1="30" y1="52" x2="590" y2="52" stroke="#d8c8b0" stroke-width="1"/>
  <text x="50" y="41" fill="#7a6040" font-family="'Barlow Condensed', sans-serif" font-size="12" font-weight="600" letter-spacing="2">SYSTEM SETTINGS</text>
  <text x="580" y="41" fill="#b0a080" font-size="11" text-anchor="end">—  ⬜  ✕</text>

  <!-- Settings sidebar nav -->
  <rect x="30" y="52" width="160" height="688" fill="#faf6f0"/>
  <line x1="190" y1="52" x2="190" y2="740" stroke="#e0d0b8" stroke-width="1"/>

  <text x="50" y="82" fill="#b0a080" font-family="'Barlow Condensed', sans-serif" font-size="9" letter-spacing="2">GENERAL</text>
  <rect x="34" y="88" width="152" height="28" rx="2" fill="#f0e0c8"/>
  <rect x="34" y="88" width="3" height="28" fill="#e85d04"/>
  <text x="50" y="107" fill="#5a3020" font-size="11" font-weight="600">System</text>
  <text x="50" y="126" fill="#8a7060" font-size="11">Network</text>
  <text x="50" y="146" fill="#8a7060" font-size="11">Security</text>
  <text x="50" y="166" fill="#8a7060" font-size="11">Notifications</text>
  <text x="50" y="194" fill="#b0a080" font-family="'Barlow Condensed', sans-serif" font-size="9" letter-spacing="2">SERVICES</text>
  <text x="50" y="214" fill="#8a7060" font-size="11">Samba</text>
  <text x="50" y="234" fill="#8a7060" font-size="11">NFS</text>
  <text x="50" y="254" fill="#8a7060" font-size="11">VPN</text>
  <text x="50" y="274" fill="#8a7060" font-size="11">Mail</text>
  <text x="50" y="302" fill="#b0a080" font-family="'Barlow Condensed', sans-serif" font-size="9" letter-spacing="2">ADVANCED</text>
  <text x="50" y="322" fill="#8a7060" font-size="11">HIPAA</text>
  <text x="50" y="342" fill="#8a7060" font-size="11">Coral TPU</text>
  <text x="50" y="362" fill="#8a7060" font-size="11">GPU</text>
  <text x="50" y="382" fill="#8a7060" font-size="11">Updates</text>

  <!-- Settings content area -->
  <text x="210" y="80" fill="#7a6040" font-family="'Barlow Condensed', sans-serif" font-size="16" font-weight="700">System</text>
  <line x1="200" y1="86" x2="580" y2="86" stroke="#e0d0b8" stroke-width="1"/>

  <!-- Setting fields -->
  <text x="210" y="110" fill="#9a8060" font-family="'Barlow Condensed', sans-serif" font-size="9" letter-spacing="2">HOSTNAME</text>
  <rect x="210" y="116" width="360" height="30" rx="3" fill="#faf6f0" stroke="#d0c0a0" stroke-width="1"/>
  <text x="222" y="135" fill="#3a2a10" font-family="'IBM Plex Mono', monospace" font-size="12">forgeos</text>

  <text x="210" y="162" fill="#9a8060" font-family="'Barlow Condensed', sans-serif" font-size="9" letter-spacing="2">DOMAIN</text>
  <rect x="210" y="168" width="360" height="30" rx="3" fill="#faf6f0" stroke="#d0c0a0" stroke-width="1"/>
  <text x="222" y="187" fill="#3a2a10" font-family="'IBM Plex Mono', monospace" font-size="12">home.example.com</text>

  <text x="210" y="214" fill="#9a8060" font-family="'Barlow Condensed', sans-serif" font-size="9" letter-spacing="2">TIMEZONE</text>
  <rect x="210" y="220" width="360" height="30" rx="3" fill="#faf6f0" stroke="#d0c0a0" stroke-width="1"/>
  <text x="222" y="239" fill="#3a2a10" font-family="'IBM Plex Mono', monospace" font-size="12">America/Chicago</text>
  <text x="558" y="239" fill="#a09070" font-size="16" text-anchor="end">▾</text>

  <text x="210" y="266" fill="#9a8060" font-family="'Barlow Condensed', sans-serif" font-size="9" letter-spacing="2">ADMIN USER</text>
  <rect x="210" y="272" width="360" height="30" rx="3" fill="#faf6f0" stroke="#d0c0a0" stroke-width="1"/>
  <text x="222" y="291" fill="#3a2a10" font-family="'IBM Plex Mono', monospace" font-size="12">forgeos</text>

  <!-- Feature toggles -->
  <line x1="200" y1="318" x2="580" y2="318" stroke="#e0d0b8" stroke-width="1"/>
  <text x="210" y="338" fill="#9a8060" font-family="'Barlow Condensed', sans-serif" font-size="9" letter-spacing="2">FEATURES</text>

  <!-- Toggle rows -->
  <text x="210" y="364" fill="#5a4020" font-size="11">Docker CE</text>
  <rect x="510" y="354" width="50" height="20" rx="10" fill="#3daa60"/>
  <circle cx="550" cy="364" r="8" fill="white"/>

  <text x="210" y="392" fill="#5a4020" font-size="11">Monitoring (Prometheus + Grafana)</text>
  <rect x="510" y="382" width="50" height="20" rx="10" fill="#3daa60"/>
  <circle cx="550" cy="392" r="8" fill="white"/>

  <text x="210" y="420" fill="#5a4020" font-size="11">WireGuard VPN</text>
  <rect x="510" y="410" width="50" height="20" rx="10" fill="#3daa60"/>
  <circle cx="550" cy="420" r="8" fill="white"/>

  <text x="210" y="448" fill="#5a4020" font-size="11">HIPAA Compliance Mode</text>
  <rect x="510" y="438" width="50" height="20" rx="10" fill="#d0c0a8"/>
  <circle cx="520" cy="448" r="8" fill="white"/>

  <text x="210" y="476" fill="#5a4020" font-size="11">Coral TPU (Frigate NVR)</text>
  <rect x="510" y="466" width="50" height="20" rx="10" fill="#3daa60"/>
  <circle cx="550" cy="476" r="8" fill="white"/>

  <text x="210" y="504" fill="#5a4020" font-size="11">MinIO S3 Object Storage</text>
  <rect x="510" y="494" width="50" height="20" rx="10" fill="#d0c0a8"/>
  <circle cx="520" cy="504" r="8" fill="white"/>

  <!-- Save button -->
  <rect x="210" y="530" width="130" height="32" rx="3" fill="#e85d04"/>
  <text x="275" y="550" fill="white" font-family="'Barlow Condensed', sans-serif" font-size="12" font-weight="600" letter-spacing="1" text-anchor="middle">SAVE SETTINGS</text>
  <rect x="350" y="530" width="100" height="32" rx="3" fill="rgba(232,93,4,0.08)" stroke="rgba(232,93,4,0.2)" stroke-width="1"/>
  <text x="400" y="550" fill="#e85d04" font-family="'Barlow Condensed', sans-serif" font-size="12" font-weight="600" letter-spacing="1" text-anchor="middle">DISCARD</text>

  <!-- Version info -->
  <rect x="200" y="620" width="380" height="80" rx="3" fill="#faf6f0" stroke="#e0d0b8" stroke-width="1"/>
  <text x="220" y="642" fill="#9a8060" font-family="'Barlow Condensed', sans-serif" font-size="9" letter-spacing="2">SYSTEM INFO</text>
  <text x="220" y="662" fill="#5a4020" font-size="11">ForgeOS  <tspan font-family="'IBM Plex Mono', monospace" fill="#8a6030">v1.0</tspan></text>
  <text x="220" y="678" fill="#5a4020" font-size="11">Ubuntu 22.04.4 LTS  ·  Kernel <tspan font-family="'IBM Plex Mono', monospace" fill="#8a6030">6.5.0-27-generic</tspan></text>
  <text x="220" y="694" fill="#5a4020" font-size="11">All CI checks passing  ·  Last update: today</text>

  <!-- Right window: Monitoring -->
  <rect x="640" y="20" width="610" height="720" rx="4" fill="white" stroke="#d8c8b0" stroke-width="1"/>
  <rect x="640" y="20" width="610" height="32" rx="4" fill="#f0e8d8"/>
  <rect x="640" y="40" width="610" height="12" fill="#f0e8d8"/>
  <line x1="640" y1="52" x2="1250" y2="52" stroke="#d8c8b0" stroke-width="1"/>
  <text x="660" y="41" fill="#7a6040" font-family="'Barlow Condensed', sans-serif" font-size="12" font-weight="600" letter-spacing="2">MONITORING — GRAFANA EMBEDDED</text>
  <text x="1240" y="41" fill="#b0a080" font-size="11" text-anchor="end">—  ⬜  ✕</text>
  <line x1="640" y1="80" x2="1250" y2="80" stroke="#d8c8b0" stroke-width="1"/>

  <!-- Grafana mock panel -->
  <rect x="650" y="88" width="590" height="180" rx="3" fill="#1a1a2e" stroke="#d8c8b0" stroke-width="1"/>
  <rect x="650" y="88" width="590" height="24" rx="3" fill="#252540"/>
  <rect x="650" y="100" width="590" height="12" fill="#252540"/>
  <text x="666" y="104" fill="#8090c0" font-family="'Barlow Condensed', sans-serif" font-size="10" font-weight="600" letter-spacing="2">GRAFANA · FORGEOS OVERVIEW</text>

  <!-- CPU sparkline -->
  <text x="666" y="126" fill="#6070a0" font-size="9" font-family="'Barlow Condensed', sans-serif" letter-spacing="2">CPU %</text>
  <polyline points="666,160 696,152 726,155 756,148 786,158 816,145 846,150 876,142 906,148 936,138 966,145 996,140 1026,145 1056,138" fill="none" stroke="#e85d04" stroke-width="1.5" stroke-linecap="round" stroke-linejoin="round"/>
  <text x="1060" y="140" fill="#e85d04" font-family="'IBM Plex Mono', monospace" font-size="11" font-weight="600">12%</text>

  <!-- Memory sparkline -->
  <text x="666" y="178" fill="#6070a0" font-size="9" font-family="'Barlow Condensed', sans-serif" letter-spacing="2">RAM %</text>
  <polyline points="666,210 696,208 726,206 756,208 786,205 816,207 846,204 876,206 906,205 936,207 966,206 996,204 1026,205 1056,203" fill="none" stroke="#4a8ab0" stroke-width="1.5" stroke-linecap="round" stroke-linejoin="round"/>
  <text x="1060" y="205" fill="#4a8ab0" font-family="'IBM Plex Mono', monospace" font-size="11" font-weight="600">34%</text>

  <!-- Network sparkline -->
  <text x="666" y="226" fill="#6070a0" font-size="9" font-family="'Barlow Condensed', sans-serif" letter-spacing="2">NET MB/s</text>
  <polyline points="666,255 696,248 726,252 756,244 786,260 816,240 846,255 876,238 906,245 936,250 966,242 996,248 1026,240 1056,235" fill="none" stroke="#3daa60" stroke-width="1.5" stroke-linecap="round" stroke-linejoin="round"/>
  <text x="1060" y="237" fill="#3daa60" font-family="'IBM Plex Mono', monospace" font-size="11" font-weight="600">420</text>

  <!-- Drive temps -->
  <rect x="650" y="278" width="590" height="120" rx="3" fill="#faf6f0" stroke="#e0d0b8" stroke-width="1"/>
  <text x="666" y="298" fill="#9a8060" font-family="'Barlow Condensed', sans-serif" font-size="9" letter-spacing="2">DRIVE TEMPERATURES (SMART)</text>
  <line x1="650" y1="302" x2="1240" y2="302" stroke="#e0d0b8" stroke-width="1"/>

  <!-- Drive temp bars -->
  <text x="666" y="322" fill="#5a4020" font-size="10">/dev/sda</text>
  <rect x="740" y="314" width="200" height="12" rx="6" fill="#e8ddc8"/>
  <rect x="740" y="314" width="76" height="12" rx="6" fill="#3daa60"/>
  <text x="948" y="324" fill="#3daa60" font-size="10">38°C  PASSED</text>

  <text x="666" y="344" fill="#5a4020" font-size="10">/dev/sdb</text>
  <rect x="740" y="336" width="200" height="12" rx="6" fill="#e8ddc8"/>
  <rect x="740" y="336" width="72" height="12" rx="6" fill="#3daa60"/>
  <text x="948" y="346" fill="#3daa60" font-size="10">36°C  PASSED</text>

  <text x="666" y="366" fill="#5a4020" font-size="10">/dev/sdc</text>
  <rect x="740" y="358" width="200" height="12" rx="6" fill="#e8ddc8"/>
  <rect x="740" y="358" width="88" height="12" rx="6" fill="#9933cc"/>
  <text x="948" y="368" fill="#9933cc" font-size="10">44°C  PREDICT ⚠</text>

  <text x="666" y="388" fill="#5a4020" font-size="10">/dev/nvme0</text>
  <rect x="740" y="380" width="200" height="12" rx="6" fill="#e8ddc8"/>
  <rect x="740" y="380" width="82" height="12" rx="6" fill="#d4860a"/>
  <text x="948" y="390" fill="#d4860a" font-size="10">41°C  WARN</text>

  <!-- Alert rules status -->
  <rect x="650" y="410" width="590" height="140" rx="3" fill="#faf6f0" stroke="#e0d0b8" stroke-width="1"/>
  <text x="666" y="430" fill="#9a8060" font-family="'Barlow Condensed', sans-serif" font-size="9" letter-spacing="2">ALERTMANAGER — ACTIVE ALERTS</text>
  <line x1="650" y1="434" x2="1240" y2="434" stroke="#e0d0b8" stroke-width="1"/>

  <rect x="660" y="442" width="570" height="36" rx="2" fill="#fff8f0" stroke="#f0c090" stroke-width="1"/>
  <rect x="660" y="442" width="4" height="36" fill="#9933cc"/>
  <text x="674" y="457" fill="#9933cc" font-size="11" font-weight="600">DriveSmartPredictiveFailure — /dev/sdc</text>
  <text x="674" y="471" fill="#8a6030" font-size="10">7 reallocated sectors detected · Firing for 2h 14m · Action: replace drive</text>

  <rect x="660" y="484" width="570" height="36" rx="2" fill="#fff8f0" stroke="#f0d0a0" stroke-width="1"/>
  <rect x="660" y="484" width="4" height="36" fill="#d4860a"/>
  <text x="674" y="499" fill="#d4860a" font-size="11" font-weight="600">DriveTemperatureWarn — /dev/nvme0</text>
  <text x="674" y="513" fill="#8a6030" font-size="10">41°C exceeds threshold (40°C) · Firing for 45m · Monitor closely</text>

  <text x="660" y="538" fill="#7a6040" font-size="10">No other active alerts · All 18 alert rules loaded from prometheus</text>

  <!-- Notification channels -->
  <rect x="650" y="568" width="590" height="120" rx="3" fill="#faf6f0" stroke="#e0d0b8" stroke-width="1"/>
  <text x="666" y="588" fill="#9a8060" font-family="'Barlow Condensed', sans-serif" font-size="9" letter-spacing="2">NOTIFICATION CHANNELS (APPRISE)</text>
  <line x1="650" y1="592" x2="1240" y2="592" stroke="#e0d0b8" stroke-width="1"/>

  <circle cx="676" cy="614" r="5" fill="#3daa60"/>
  <text x="690" y="618" fill="#5a4020" font-size="11">Gotify (local push)  ·  push.home.example.com</text>
  <circle cx="676" cy="636" r="5" fill="#3daa60"/>
  <text x="690" y="640" fill="#5a4020" font-size="11">Discord webhook  ·  #forgeos-alerts</text>
  <circle cx="676" cy="658" r="5" fill="#d0c0a8"/>
  <text x="690" y="662" fill="#8a7060" font-size="11">Slack  ·  not configured</text>
  <circle cx="676" cy="680" r="5" fill="#d0c0a8"/>
  <text x="690" y="684" fill="#8a7060" font-size="11">Telegram  ·  not configured</text>

  <text x="640" y="790" fill="#c0a870" font-family="'Barlow Condensed', sans-serif" font-size="11" letter-spacing="3" text-anchor="middle">FORGEOS v1.0 · SETTINGS &amp; MONITORING</text>
</svg>